<svg xmlns="http://www.w3.org/2000/svg" width="49" height="49" fill="#323232"><path d="M24.5 0a24.5 24.5 0 1 0 0 49 24.5 24.5 0 0 0 0-49zm0 47a22.5 22.5 0 1 1 0-45 22.5 22.5 0 0 1 0 45zm10.3-20.2c-.4-9.5-9.2-18.7-9.6-19.1l-.1-.2h-.2l-.1-.1a.9.9 0 0 0-.3 0 1 1 0 0 0-.3 0H24l-.2.1v.1h-.1c-.4.5-9.2 9.7-9.6 19.2V28c.3 10.3 10 12.9 10 12.9a1 1 0 0 0 .5 0c.1 0 9.8-2.6 10.1-12.8v-1.3zm-18-3.6c2.2 2.1 5.4 3.6 6.7 4.1V32c-2.4-1.2-6.2-3.3-7.3-5.2 0-1.2.3-2.3.6-3.4zm2-5c1.5 1.6 3.6 2.6 4.7 3v4c-1.7-.8-4.4-2.3-6-4 .4-1.1.8-2.1 1.3-3zm12.7 3a19.2 19.2 0 0 1-6 4v-4c1-.4 3.2-1.4 4.7-3 .5.9 1 1.9 1.3 3zm-6-2.2v-8c1 1.3 2.4 3.1 3.7 5.3a9 9 0 0 1-3.7 2.7zm0 12.9v-4.6c1.4-.5 4.5-2 6.7-4 .3 1 .5 2.2.6 3.4-1 1.8-4.9 4-7.3 5.2zm-2-12.8a9 9 0 0 1-3.6-2.8c1.2-2.2 2.6-4 3.6-5.3v8zm-7.1 10.7c2.3 2 5.7 3.7 7.1 4.3v4.4c-2-.9-6.2-3.3-7.1-8.7zm9.1 8.7v-4.4c1.4-.6 4.8-2.3 7.1-4.3-1 5.4-5 7.8-7.1 8.7z"/></svg>