<svg xmlns="http://www.w3.org/2000/svg" width="49" height="49"><g fill="#323232"><path d="M24.5 0a24.5 24.5 0 1 0 0 49 24.5 24.5 0 0 0 0-49zm0 47a22.5 22.5 0 1 1 0-45 22.5 22.5 0 0 1 0 45z"/><path d="M34.8 19.3c.9-1.7 1.9-5 .4-9.4a1 1 0 0 0-1.8-.2c-1.3 2.2-4 5.9-6 6l-.1.1c-1.5-.3-2.7-.3-2.8-.3-.1 0-1.3 0-2.8.3-2-.2-4.8-3.9-6.1-6.1a1 1 0 1 0-1.8.2c-1.5 4.5-.5 7.7.4 9.4-1.8.3-4 .8-4.8 2.2-.4.7-.3 1.5 0 2.2.6 1 1.5 1.3 2.4 1.3.8 0 1.7-.3 2.3-.5a34.5 34.5 0 0 0 1.9 6.8l.5 1.3-.7 2.5c-.2.8 0 2.2 1 3.3 1.5 1.7 4 2.5 7.7 2.5 3.6 0 6.2-.8 7.6-2.5 1-1.1 1.3-2.5 1.1-3.3 0-.7-.5-1.9-.7-2.5 0-.3.3-.8.5-1.3.6-1.6 1.4-3.7 1.7-5.2l.2-1.6c.6.2 1.5.5 2.3.5 1 0 1.8-.3 2.3-1.3.4-.7.5-1.5 0-2.2-.7-1.4-3-2-4.7-2.2zm-1-6.6c.5 3-.4 5.2-1 6.1L32 18a7 7 0 0 0-1.9-1.2 17 17 0 0 0 3.8-4zm-18.7 0c1 1.3 2.3 3 3.7 4a6.5 6.5 0 0 0-2.6 2.1c-.6-1-1.5-3-1-6zm-3.9 10v-.2c.2-.4 1.4-1 3.6-1.2l-.3.9c-1.3.6-3 1-3.3.6zm21.6 3c-.3 1.3-1 3.4-1.7 4.9l-.7 1.8V33c.4.7.8 2 .9 2.4 0 0 0 .8-.7 1.7-.7.8-2.4 1.8-6.1 1.8-3.7 0-5.4-1-6.1-1.8-.8-.9-.7-1.7-.7-1.7l.8-2.4.1-.2v-.3l-.7-2c-.6-1.4-1.4-3.5-1.7-4.8-.4-2.2.4-4.5 2.2-6.3 1.5-1.6 5-1.9 6.1-1.9 1.2 0 4.5.3 6.1 1.9 2.1 2 2.5 4.6 2.2 6.3zm5-3c-.3.5-2 .1-3.2-.5l-.3-1c2.2.3 3.3 1 3.5 1.3v.3z"/></g></svg>