<svg xmlns="http://www.w3.org/2000/svg" width="61" height="61"><circle fill="#FFF" cx="30.5" cy="30.5" r="30.5"/><g fill="#231F20"><path d="M20 18.3c-1 2.7-1.7 5.4-2.5 8a50 50 0 0 1-1-8.7c0-.4-1.9 0-1.9.6 0 4.2.8 8.3 1.8 12.4l-3.6 13.8c-.1.4 1.8.1 1.9-.4l2.6-9.8c.8 3.2 1.6 6.4 2.2 9.7.1.5 2 0 2-.5L18.3 30c1-4 2.2-8.1 3.6-12.2.1-.3-1.7-.1-2 .4zM34.4 18.8c0-1-2-.8-2 .1v.5c-1 4.4-2.7 8.7-4.1 13-.7 2-1.2 4-1.7 5.9l-.2-19.9c0-1-2-.8-2 .1.1 8.4 0 16.7.4 25v.8c.1.8 2 .4 2-.4 1.6-4.2 2.5-8.6 3.9-12.8l1.5-4.7c0 6 0 12 .2 18 0 1 1.6.7 2 0v-.6c-.2-8.4-.4-16.7 0-25zM47.3 17.7c-3.1.3-6.3.2-9.5 0-.4 0-2.2.9-1.2 1H40l-.2.3c.3 8.4-1 17.3.2 25.6 0 .4 2 0 2-.5-1.3-8.3 0-17-.2-25.3 1.7 0 3.5 0 5.3-.3.9 0 1.7-1 .3-.8z"/></g></svg>