<svg xmlns="http://www.w3.org/2000/svg" width="80" height="140" fill="#e84d37"><path d="M40 7.1a28.3 28.3 0 0 1 24.6 42.3A9.3 9.3 0 1 1 54 60l-1 .6a13.1 13.1 0 0 1-26 0l-1-.6a9.3 9.3 0 1 1-10.6-10.5A28.3 28.3 0 0 1 40 7.1m0-7a35.3 35.3 0 0 0-33.6 46 16.3 16.3 0 0 0 10.4 28.8c3.1 0 6.1-1 8.6-2.5a20 20 0 0 0 29.2 0 16.3 16.3 0 0 0 19-26.3A35.3 35.3 0 0 0 40 .1zM63.2 79a20 20 0 0 1-8-1.8l-1.2.9.6.5-4 3.9-1.6-1.7-2.1.8 2.4 2.3-4 4-3.8-4 1.5-1.5a24.5 24.5 0 0 1-6 0l1.6 1.5-3.9 4-3.9-4 2.4-2.3-2.1-.7-1.7 1.6-3.9-3.9.5-.5-1.2-.9a20 20 0 0 1-8 1.7h-.6c-.1.5 0 1 .1 1.6l20.4 57.1v.2l.2.2.2.4.1.1.4.5h.1l.4.4h.2c.1.2.3.2.4.3h.1l.5.2h1.4l.4-.1.2-.1a3.6 3.6 0 0 0 1-.6l.5-.6a3.5 3.5 0 0 0 .4-.7l.1-.2 20.4-57.1c.2-.5.2-1 .1-1.6h-.6zm-14 15.5l-3.8 4-4-4 4-3.9 3.9 4zm-13 5.4l3.8-4 4 4-4 3.9-3.9-4zm7.7 10.6l-3.9 3.9-3.9-4 4-3.8 3.8 3.9zM40 85.3l4 4-4 3.8-3.9-3.9 4-3.9zm-1.4 9.2l-3.9 4-3.9-4 4-3.9 3.8 4zM23.7 80.4l.4-.4 3.9 4-2.2 2.1-2-5.7zm2.8 7.8l3-2.9 3.8 4-3.9 3.8-1.8-1.8-1-3zm2.8 7.9l.1-.1 4 3.9-2 2-2-5.8zm4.2 11.8l-1.4-4 2.6-2.6 4 3.9-4 3.9-1.2-1.2zm3.4 9.6l-1.8-5.3 3.5 3.6-1.7 1.7zM40 126l-2.3-6.4 2.3-2.4 2.3 2.3L40 126zm3-8.6l-1.5-1.6 3.4-3.4-1.8 5zm3.4-9.4l-1 1-4-3.8 4-4 2.5 2.6-1.5 4.2zm2.3-6.3l-2-1.8 4-4v.1l-2 5.7zm3.6-10.2L50.7 93l-4-3.9 4-3.9 2.8 2.9-1.2 3.3zm2-5.4L52 83.9l4-3.9.3.3-2 5.8z"/></svg>