<svg xmlns="http://www.w3.org/2000/svg" width="32" height="32" fill="#fff"><path d="M16.6 14.5c.4 0 .8 0 1-.2a.9.9 0 0 0 .6-.6l.2-.7c0-.3 0-.5-.2-.7a1 1 0 0 0-.6-.6 76.2 76.2 0 0 0-2.6-.2h-.4v3h2zm1.5 2.5h-3.5v3.4h.3a181.9 181.9 0 0 0 3.4-.2l.7-.6c.1-.2.3-.6.3-1a1.69 1.69 0 0 0-.3-1c-.2-.2-.5-.4-.9-.5zM16 0a16 16 0 1 0 0 32 16 16 0 0 0 0-32zm6.6 20.5c-.3.6-.6 1-1.1 1.4-.6.4-1.2.7-1.8.8s-1.5.3-2.6.3h-6V9h5.4l2.4.1c.6 0 1 .2 1.6.5.5.3 1 .6 1.2 1 .2.5.4 1 .4 1.6a3 3 0 0 1-.6 1.8c-.3.6-.8 1-1.5 1.2v.1a4 4 0 0 1 2.2 1.2c.5.5.8 1.3.8 2.2a4 4 0 0 1-.4 1.8z"/></svg>